<?xml version="1.0" encoding="UTF-8" standalone="no"?>
<svg
   version="1.0"
   width="176.66"
   height="145.42064"
   viewBox="0 0 176.66 145.42064"
   preserveAspectRatio="xMidYMid"
   color-interpolation-filters="sRGB"
   id="svg17"
   sodipodi:docname="icon.svg"
   inkscape:version="1.3.2 (091e20ef0f, 2023-11-25)"
   xmlns:inkscape="http://www.inkscape.org/namespaces/inkscape"
   xmlns:sodipodi="http://sodipodi.sourceforge.net/DTD/sodipodi-0.dtd"
   xmlns="http://www.w3.org/2000/svg"
   xmlns:svg="http://www.w3.org/2000/svg">
  <defs
     id="defs17" />
  <sodipodi:namedview
     id="namedview17"
     pagecolor="#ffffff"
     bordercolor="#000000"
     borderopacity="0.25"
     inkscape:showpageshadow="2"
     inkscape:pageopacity="0.0"
     inkscape:pagecheckerboard="0"
     inkscape:deskcolor="#d1d1d1"
     inkscape:zoom="1.3914181"
     inkscape:cx="-82.290146"
     inkscape:cy="45.996239"
     inkscape:window-width="1920"
     inkscape:window-height="1006"
     inkscape:window-x="0"
     inkscape:window-y="1080"
     inkscape:window-maximized="1"
     inkscape:current-layer="svg17" />
  <g
     mask="url(#e40b73ca-9d0a-44d9-af51-bb5bc0ffdaa3)"
     id="g5"
     transform="translate(13.329986)">
    <path
       d="M 64.678,38.272 C 65.64,32.573 66.182,27.248 66.246,22.624 66.332,16.375 65.58,8.697 61.506,7.6 61.203,7.519 60.887,7.477 60.567,7.477 c -0.184,0 -0.37,0.017 -0.555,0.042 C 59.836,7.493 59.657,7.477 59.477,7.477 54.614,7.477 48.83,16.651 44.089,27.987 35.603,20.781 28.036,16.372 23.56,16.372 c -1.253,0 -2.266,0.34 -3.012,1.01 -3.686,3.308 0.489,13.139 7.312,23.464 -12.795,2.495 -22.389,6.53 -22.151,11.373 0.325,6.646 18.74,9.71 35.925,9.774 0.622,1.104 1.804,1.852 3.158,1.852 1.998,0 3.623,-1.625 3.623,-3.624 0,-1.999 -1.625,-3.623 -3.623,-3.623 -1.64,0 -3.025,1.094 -3.472,2.59 C 26.11,59.073 13.472,56.748 8.989,53.218 8.981,53.212 8.218,52.558 8.201,51.734 8.191,51.25 8.453,50.764 8.98,50.293 8.986,50.288 8.997,50.277 9.007,50.267 12.65,47.459 20.12,44.994 29.522,43.299 c 2.014,2.897 4.2,5.795 6.45,8.563 0.225,0.276 0.629,0.322 0.911,0.102 l 1.176,-0.924 c 0.138,-0.108 0.226,-0.267 0.245,-0.44 0.02,-0.173 -0.031,-0.348 -0.141,-0.484 -2.011,-2.482 -3.868,-4.939 -5.567,-7.332 5.159,-0.803 10.796,-1.38 16.641,-1.667 1.476,-0.072 2.955,-0.126 4.427,-0.163 0.988,1.046 1.975,2.113 2.954,3.204 0.815,0.909 1.615,1.82 2.4,2.732 -0.427,1.831 -0.89,3.682 -1.392,5.546 -0.577,2.144 -1.177,4.223 -1.794,6.229 -1.386,0.11 -2.787,0.205 -4.204,0.28 -0.191,0.011 -0.369,0.105 -0.484,0.258 l -1.168,1.54 c -0.153,0.202 -0.176,0.475 -0.058,0.7 0.118,0.224 0.343,0.353 0.61,0.348 1.479,-0.072 2.945,-0.164 4.398,-0.271 -5.572,17.071 -12.245,28.311 -16.108,29.35 -0.143,-0.048 -0.281,-0.116 -0.417,-0.208 -0.879,-0.597 -1.082,-1.988 -1.083,-2 -0.043,-0.325 -0.32,-0.567 -0.647,-0.567 -10e-4,0 -10e-4,0 -0.002,0 -0.228,0 -0.427,0.124 -0.543,0.306 -0.116,-0.182 -0.315,-0.306 -0.545,-0.306 -0.001,0 -0.001,0 -0.002,0 -0.329,0.001 -0.605,0.246 -0.646,0.571 -0.35,2.785 1.431,4.144 2.457,4.484 0.302,0.082 0.619,0.122 0.939,0.122 0.18,0 0.361,-0.018 0.545,-0.044 0.179,0.027 0.361,0.044 0.546,0.044 5.636,0 13.642,-13.354 19.646,-32.112 3.487,-0.346 6.854,-0.795 10.038,-1.335 6.506,9.326 10.337,17.325 9.559,20.801 -0.157,0.705 -0.508,1.162 -1.07,1.399 -0.229,0.097 -0.495,0.146 -0.792,0.146 -0.769,0 -1.469,-0.325 -1.474,-0.328 -0.298,-0.141 -0.652,-0.04 -0.831,0.235 -0.179,0.276 -0.123,0.641 0.128,0.853 0.891,0.752 1.844,1.134 2.832,1.134 1.312,0 2.199,-0.696 2.267,-0.75 3.639,-3.266 -0.346,-13.064 -7.695,-24.026 3.378,-0.658 6.517,-1.422 9.324,-2.285 C 87.326,55.17 94.404,52.098 94.197,47.883 93.911,42.061 79.74,38.988 64.678,38.272 Z M 61.245,11.304 c 0.002,0.006 0.009,0.019 0.017,0.033 1.828,5.09 1.585,15.071 -0.456,26.802 -1.033,-0.022 -2.064,-0.033 -3.092,-0.033 -0.95,0 -1.917,0.019 -2.88,0.036 -2.59,-2.692 -5.175,-5.202 -7.705,-7.489 4.111,-10.163 8.687,-17.727 12.419,-20.237 0.005,-0.003 0.268,-0.163 0.638,-0.268 0.434,0.16 0.785,0.541 1.059,1.156 z M 46.05,33.411 c 1.654,1.529 3.329,3.146 5.003,4.84 -0.559,0.022 -1.116,0.034 -1.675,0.062 -1.733,0.084 -3.471,0.201 -5.199,0.34 0.605,-1.801 1.23,-3.552 1.871,-5.242 z m 11.961,7.488 c 0.769,0 1.528,0.007 2.284,0.017 -0.165,0.854 -0.342,1.717 -0.524,2.585 -0.296,-0.334 -0.591,-0.671 -0.89,-1.003 -0.482,-0.537 -0.964,-1.067 -1.447,-1.592 0.191,0 0.386,-0.007 0.577,-0.007 z m 3.331,12.53 c 0.259,-0.962 0.504,-1.919 0.744,-2.875 1.867,2.291 3.622,4.564 5.241,6.783 -2.365,0.367 -4.832,0.685 -7.372,0.95 0.479,-1.588 0.941,-3.206 1.387,-4.858 z M 24.141,18.709 c 4.581,1.08 11.413,5.496 18.857,11.965 -1.072,2.731 -2.077,5.551 -2.992,8.37 -3.127,0.334 -6.192,0.755 -9.129,1.254 -5.584,-8.281 -8.971,-15.53 -9.036,-19.737 0.006,-0.318 0.117,-1.899 1.747,-1.899 0.161,0 0.335,0.015 0.518,0.044 0.005,0 0.02,0.002 0.035,0.003 z m 66.142,31.657 c -0.029,0.013 -0.056,0.029 -0.082,0.046 -3.923,2.594 -11.058,4.847 -19.86,6.423 -2.258,-3.206 -4.77,-6.474 -7.435,-9.678 0.477,-2.078 0.905,-4.129 1.285,-6.142 14.063,0.533 24.912,2.874 27.298,6.054 0.41,0.546 0.528,1.087 0.363,1.652 -0.296,1.022 -1.559,1.64 -1.569,1.645 z"
       id="path1"
       style="overflow:visible;fill:#333333;fill-opacity:1;stroke:none"
       transform="matrix(1.694978,0,0,1.694978,-9.6692934,-12.673351)">
                            </path>
  </g>
  <path
     d="M 8.82,83.93535 H 0 v -22.09 h 8.12 q 2.29,0 3.9,0.43 1.61,0.42 2.62,1.2 1.02,0.77 1.48,1.87 0.46,1.11 0.46,2.48 v 0 q 0,0.74 -0.21,1.43 -0.21,0.69 -0.67,1.29 -0.45,0.61 -1.16,1.1 -0.72,0.5 -1.72,0.86 v 0 q 2.19,0.53 3.23,1.72 1.05,1.19 1.05,3.06 v 0 q 0,1.4 -0.55,2.62 -0.54,1.21 -1.6,2.11 -1.05,0.9 -2.6,1.41 -1.54,0.51 -3.53,0.51 z m -0.12,-9.37 H 5.12 v 5.5 h 3.61 q 1.02,0 1.66,-0.25 0.64,-0.26 1.01,-0.67 0.36,-0.41 0.5,-0.93 0.14,-0.51 0.14,-1.04 v 0 q 0,-0.61 -0.16,-1.09 -0.16,-0.49 -0.55,-0.82 -0.39,-0.33 -1.02,-0.52 -0.64,-0.18 -1.61,-0.18 z m -3.58,-8.88 v 5.46 h 2.67 q 0.85,0 1.53,-0.13 0.68,-0.12 1.16,-0.42 0.48,-0.3 0.73,-0.83 0.25,-0.53 0.25,-1.34 v 0 q 0,-0.79 -0.2,-1.31 -0.19,-0.52 -0.6,-0.84 -0.41,-0.32 -1.04,-0.46 -0.63,-0.13 -1.5,-0.13 v 0 z m 27.77,18.25 h -2.15 q -0.67,0 -1.01,-0.18 -0.34,-0.18 -0.56,-0.76 v 0 l -0.34,-0.86 q -0.59,0.5 -1.14,0.88 -0.54,0.37 -1.12,0.64 -0.59,0.26 -1.25,0.39 -0.66,0.13 -1.46,0.13 v 0 q -1.08,0 -1.96,-0.28 -0.88,-0.28 -1.49,-0.82 -0.61,-0.55 -0.95,-1.36 -0.33,-0.81 -0.33,-1.87 v 0 q 0,-0.84 0.42,-1.72 0.43,-0.88 1.47,-1.6 1.05,-0.72 2.82,-1.2 1.78,-0.49 4.48,-0.55 v 0 -0.66 q 0,-1.38 -0.57,-2 -0.57,-0.61 -1.62,-0.61 v 0 q -0.83,0 -1.36,0.18 -0.53,0.18 -0.95,0.41 -0.42,0.23 -0.81,0.41 -0.39,0.18 -0.94,0.18 v 0 q -0.48,0 -0.83,-0.23 -0.34,-0.24 -0.53,-0.59 v 0 l -0.85,-1.47 q 1.42,-1.26 3.16,-1.87 1.73,-0.61 3.72,-0.61 v 0 q 1.42,0 2.57,0.46 1.14,0.46 1.94,1.29 0.8,0.82 1.22,1.96 0.42,1.14 0.42,2.49 v 0 z m -7.54,-2.87 v 0 q 0.9,0 1.59,-0.31 0.68,-0.32 1.38,-1.03 v 0 -2.19 q -1.41,0.06 -2.32,0.25 -0.91,0.18 -1.44,0.45 -0.53,0.27 -0.74,0.62 -0.2,0.35 -0.2,0.76 v 0 q 0,0.8 0.44,1.13 0.44,0.32 1.29,0.32 z m 11.03,-19.82 h 4.7 v 22.69 h -4.7 z m 15.49,6.73 v 0 q 1.79,0 3.26,0.56 1.47,0.56 2.53,1.61 1.05,1.04 1.63,2.53 0.59,1.5 0.59,3.36 v 0 q 0,1.88 -0.59,3.39 -0.58,1.51 -1.63,2.56 -1.06,1.06 -2.53,1.62 -1.47,0.57 -3.26,0.57 v 0 q -1.8,0 -3.28,-0.57 -1.48,-0.56 -2.54,-1.62 -1.07,-1.05 -1.66,-2.56 -0.58,-1.51 -0.58,-3.39 v 0 q 0,-1.86 0.58,-3.36 0.59,-1.49 1.66,-2.53 1.06,-1.05 2.54,-1.61 1.48,-0.56 3.28,-0.56 z m 0,12.72 v 0 q 1.63,0 2.39,-1.15 0.77,-1.14 0.77,-3.48 v 0 q 0,-2.33 -0.77,-3.47 -0.76,-1.14 -2.39,-1.14 v 0 q -1.66,0 -2.44,1.14 -0.77,1.14 -0.77,3.47 v 0 q 0,2.34 0.77,3.48 0.78,1.15 2.44,1.15 z m 17.59,-12.72 v 0 q 1.79,0 3.26,0.56 1.47,0.56 2.52,1.61 1.06,1.04 1.64,2.53 0.58,1.5 0.58,3.36 v 0 q 0,1.88 -0.58,3.39 -0.58,1.51 -1.64,2.56 -1.05,1.06 -2.52,1.62 -1.47,0.57 -3.26,0.57 v 0 q -1.81,0 -3.28,-0.57 -1.48,-0.56 -2.55,-1.62 -1.07,-1.05 -1.65,-2.56 -0.59,-1.51 -0.59,-3.39 v 0 q 0,-1.86 0.59,-3.36 0.58,-1.49 1.65,-2.53 1.07,-1.05 2.55,-1.61 1.47,-0.56 3.28,-0.56 z m 0,12.72 v 0 q 1.62,0 2.39,-1.15 0.76,-1.14 0.76,-3.48 v 0 q 0,-2.33 -0.76,-3.47 -0.77,-1.14 -2.39,-1.14 v 0 q -1.67,0 -2.44,1.14 -0.78,1.14 -0.78,3.47 v 0 q 0,2.34 0.78,3.48 0.77,1.15 2.44,1.15 z m 30.01,-16.74 -1.27,2.38 q -0.23,0.36 -0.48,0.55 -0.25,0.18 -0.64,0.18 v 0 q -0.35,0 -0.75,-0.22 -0.4,-0.22 -0.91,-0.49 -0.51,-0.28 -1.16,-0.5 -0.65,-0.22 -1.49,-0.22 v 0 q -1.44,0 -2.14,0.62 -0.71,0.61 -0.71,1.66 v 0 q 0,0.66 0.43,1.1 0.42,0.44 1.11,0.76 0.69,0.32 1.58,0.58 0.89,0.27 1.81,0.6 0.92,0.32 1.81,0.76 0.89,0.44 1.58,1.12 0.69,0.69 1.11,1.66 0.43,0.98 0.43,2.36 v 0 q 0,1.53 -0.53,2.87 -0.53,1.33 -1.54,2.32 -1.01,1 -2.49,1.56 -1.48,0.57 -3.36,0.57 v 0 q -1.03,0 -2.1,-0.21 -1.06,-0.21 -2.07,-0.6 -1,-0.39 -1.87,-0.92 -0.88,-0.53 -1.54,-1.18 v 0 l 1.52,-2.39 q 0.17,-0.28 0.47,-0.44 0.3,-0.17 0.65,-0.17 v 0 q 0.46,0 0.92,0.29 0.46,0.29 1.04,0.64 0.59,0.34 1.35,0.63 0.75,0.29 1.79,0.29 v 0 q 1.39,0 2.16,-0.61 0.78,-0.62 0.78,-1.95 v 0 q 0,-0.78 -0.43,-1.26 -0.42,-0.49 -1.11,-0.8 -0.69,-0.32 -1.57,-0.56 -0.88,-0.25 -1.81,-0.54 -0.92,-0.3 -1.8,-0.73 -0.88,-0.43 -1.57,-1.14 -0.69,-0.7 -1.11,-1.76 -0.43,-1.05 -0.43,-2.6 v 0 q 0,-1.24 0.5,-2.42 0.5,-1.18 1.47,-2.11 0.97,-0.92 2.38,-1.48 1.41,-0.55 3.23,-0.55 v 0 q 1.02,0 1.98,0.16 0.96,0.16 1.83,0.47 0.86,0.31 1.61,0.74 0.75,0.43 1.34,0.98 z m 9.58,4.02 v 0 q 1.57,0 2.86,0.48 1.3,0.49 2.23,1.41 0.93,0.93 1.46,2.27 0.52,1.34 0.52,3.04 v 0 q 0,0.53 -0.05,0.86 -0.04,0.34 -0.16,0.53 -0.13,0.2 -0.33,0.28 -0.2,0.07 -0.52,0.07 v 0 h -9.07 q 0.23,1.97 1.2,2.86 0.97,0.89 2.5,0.89 v 0 q 0.82,0 1.41,-0.2 0.59,-0.2 1.05,-0.44 0.47,-0.24 0.85,-0.44 0.39,-0.2 0.81,-0.2 v 0 q 0.57,0 0.85,0.41 v 0 l 1.37,1.68 q -0.73,0.84 -1.57,1.36 -0.84,0.52 -1.73,0.82 -0.89,0.3 -1.77,0.41 -0.89,0.11 -1.69,0.11 v 0 q -1.66,0 -3.1,-0.54 -1.45,-0.53 -2.54,-1.59 -1.08,-1.07 -1.71,-2.64 -0.63,-1.58 -0.63,-3.67 v 0 q 0,-1.58 0.54,-2.99 0.54,-1.41 1.55,-2.47 1.01,-1.06 2.44,-1.68 1.43,-0.62 3.23,-0.62 z m 0.1,3.24 v 0 q -1.35,0 -2.11,0.77 -0.76,0.76 -1,2.2 v 0 h 5.86 q 0,-0.56 -0.14,-1.09 -0.14,-0.53 -0.47,-0.95 -0.33,-0.41 -0.86,-0.67 -0.53,-0.26 -1.28,-0.26 z m 22.67,12.72 h -2.15 q -0.67,0 -1.01,-0.18 -0.34,-0.18 -0.57,-0.76 v 0 l -0.33,-0.86 q -0.59,0.5 -1.14,0.88 -0.54,0.37 -1.13,0.64 -0.58,0.26 -1.24,0.39 -0.66,0.13 -1.46,0.13 v 0 q -1.08,0 -1.96,-0.28 -0.88,-0.28 -1.49,-0.82 -0.61,-0.55 -0.95,-1.36 -0.33,-0.81 -0.33,-1.87 v 0 q 0,-0.84 0.42,-1.72 0.43,-0.88 1.47,-1.6 1.05,-0.72 2.82,-1.2 1.78,-0.49 4.48,-0.55 v 0 -0.66 q 0,-1.38 -0.57,-2 -0.57,-0.61 -1.62,-0.61 v 0 q -0.83,0 -1.36,0.18 -0.53,0.18 -0.95,0.41 -0.42,0.23 -0.81,0.41 -0.39,0.18 -0.94,0.18 v 0 q -0.49,0 -0.83,-0.23 -0.34,-0.24 -0.53,-0.59 v 0 l -0.85,-1.47 q 1.42,-1.26 3.16,-1.87 1.73,-0.61 3.72,-0.61 v 0 q 1.42,0 2.57,0.46 1.14,0.46 1.94,1.29 0.79,0.82 1.22,1.96 0.42,1.14 0.42,2.49 v 0 z m -7.55,-2.87 v 0 q 0.91,0 1.6,-0.31 0.68,-0.32 1.38,-1.03 v 0 -2.19 q -1.41,0.06 -2.32,0.25 -0.91,0.18 -1.44,0.45 -0.53,0.27 -0.74,0.62 -0.2,0.35 -0.2,0.76 v 0 q 0,0.8 0.44,1.13 0.44,0.32 1.28,0.32 z m 15.59,2.87 h -4.7 v -15.72 h 2.79 q 0.35,0 0.58,0.06 0.24,0.06 0.4,0.19 0.15,0.13 0.24,0.34 0.08,0.21 0.14,0.52 v 0 l 0.26,1.47 q 0.86,-1.34 1.94,-2.11 1.08,-0.77 2.35,-0.77 v 0 q 1.08,0 1.73,0.51 v 0 l -0.61,3.46 q -0.06,0.32 -0.24,0.45 -0.18,0.12 -0.49,0.12 v 0 q -0.25,0 -0.6,-0.06 -0.35,-0.07 -0.88,-0.07 v 0 q -1.85,0 -2.91,1.97 v 0 z m 20.4,-13.64 -1.24,1.65 q -0.21,0.26 -0.41,0.41 -0.2,0.15 -0.56,0.15 v 0 q -0.35,0 -0.63,-0.17 -0.28,-0.16 -0.63,-0.37 -0.35,-0.2 -0.82,-0.37 -0.47,-0.17 -1.17,-0.17 v 0 q -0.86,0 -1.49,0.32 -0.63,0.32 -1.04,0.91 -0.41,0.59 -0.6,1.45 -0.2,0.86 -0.2,1.93 v 0 q 0,2.26 0.87,3.47 0.87,1.22 2.4,1.22 v 0 q 0.82,0 1.3,-0.21 0.48,-0.2 0.81,-0.45 0.33,-0.25 0.61,-0.47 0.29,-0.21 0.71,-0.21 v 0 q 0.56,0 0.85,0.41 v 0 l 1.36,1.68 q -0.72,0.84 -1.53,1.36 -0.8,0.52 -1.64,0.82 -0.84,0.3 -1.69,0.41 -0.85,0.11 -1.66,0.11 v 0 q -1.44,0 -2.75,-0.54 -1.31,-0.55 -2.3,-1.59 -0.99,-1.04 -1.58,-2.55 -0.58,-1.52 -0.58,-3.46 v 0 q 0,-1.7 0.51,-3.17 0.5,-1.48 1.5,-2.57 0.99,-1.08 2.45,-1.7 1.47,-0.62 3.39,-0.62 v 0 q 1.85,0 3.25,0.59 1.39,0.59 2.51,1.73 z m 6.85,13.64 h -4.7 v -22.69 h 4.7 v 8.35 q 0.85,-0.73 1.85,-1.18 0.99,-0.44 2.37,-0.44 v 0 q 1.29,0 2.28,0.44 0.99,0.45 1.67,1.25 0.69,0.79 1.04,1.89 0.34,1.1 0.34,2.39 v 0 9.99 h -4.7 v -9.99 q 0,-1.15 -0.53,-1.8 -0.53,-0.64 -1.56,-0.64 v 0 q -0.77,0 -1.45,0.33 -0.68,0.34 -1.31,0.9 v 0 z"
     id="path5"
     style="fill:#147dc8;fill-opacity:1;stroke:none" />
  <mask
     id="e40b73ca-9d0a-44d9-af51-bb5bc0ffdaa3">
    <g
       fill="#ffffff"
       id="g13">
      <g
         id="g12">
        <rect
           fill-opacity="1"
           stroke-width="2"
           x="0"
           y="0"
           width="150"
           height="145.4207"
           class="image-rect"
           id="rect11" />
        <svg
           x="0"
           y="0"
           width="150"
           height="145.4207"
           class="image-svg-svg primary"
           style="overflow:visible"
           filter="url(#colorsf5270272619)"
           version="1.1"
           id="svg12">
          <svg
             version="1.1"
             x="0px"
             y="0px"
             viewBox="5.7046719 7.4770002 88.496758 85.795006"
             enable-background="new 0 0 100 100"
             xml:space="preserve"
             id="svg11"
             width="100%"
             height="100%">
                        <path
   d="M 64.678,38.272 C 65.64,32.573 66.182,27.248 66.246,22.624 66.332,16.375 65.58,8.697 61.506,7.6 61.203,7.519 60.887,7.477 60.567,7.477 c -0.184,0 -0.37,0.017 -0.555,0.042 C 59.836,7.493 59.657,7.477 59.477,7.477 54.614,7.477 48.83,16.651 44.089,27.987 35.603,20.781 28.036,16.372 23.56,16.372 c -1.253,0 -2.266,0.34 -3.012,1.01 -3.686,3.308 0.489,13.139 7.312,23.464 -12.795,2.495 -22.389,6.53 -22.151,11.373 0.325,6.646 18.74,9.71 35.925,9.774 0.622,1.104 1.804,1.852 3.158,1.852 1.998,0 3.623,-1.625 3.623,-3.624 0,-1.999 -1.625,-3.623 -3.623,-3.623 -1.64,0 -3.025,1.094 -3.472,2.59 C 26.11,59.073 13.472,56.748 8.989,53.218 8.981,53.212 8.218,52.558 8.201,51.734 8.191,51.25 8.453,50.764 8.98,50.293 8.986,50.288 8.997,50.277 9.007,50.267 12.65,47.459 20.12,44.994 29.522,43.299 c 2.014,2.897 4.2,5.795 6.45,8.563 0.225,0.276 0.629,0.322 0.911,0.102 l 1.176,-0.924 c 0.138,-0.108 0.226,-0.267 0.245,-0.44 0.02,-0.173 -0.031,-0.348 -0.141,-0.484 -2.011,-2.482 -3.868,-4.939 -5.567,-7.332 5.159,-0.803 10.796,-1.38 16.641,-1.667 1.476,-0.072 2.955,-0.126 4.427,-0.163 0.988,1.046 1.975,2.113 2.954,3.204 0.815,0.909 1.615,1.82 2.4,2.732 -0.427,1.831 -0.89,3.682 -1.392,5.546 -0.577,2.144 -1.177,4.223 -1.794,6.229 -1.386,0.11 -2.787,0.205 -4.204,0.28 -0.191,0.011 -0.369,0.105 -0.484,0.258 l -1.168,1.54 c -0.153,0.202 -0.176,0.475 -0.058,0.7 0.118,0.224 0.343,0.353 0.61,0.348 1.479,-0.072 2.945,-0.164 4.398,-0.271 -5.572,17.071 -12.245,28.311 -16.108,29.35 -0.143,-0.048 -0.281,-0.116 -0.417,-0.208 -0.879,-0.597 -1.082,-1.988 -1.083,-2 -0.043,-0.325 -0.32,-0.567 -0.647,-0.567 -10e-4,0 -10e-4,0 -0.002,0 -0.228,0 -0.427,0.124 -0.543,0.306 -0.116,-0.182 -0.315,-0.306 -0.545,-0.306 -0.001,0 -0.001,0 -0.002,0 -0.329,0.001 -0.605,0.246 -0.646,0.571 -0.35,2.785 1.431,4.144 2.457,4.484 0.302,0.082 0.619,0.122 0.939,0.122 0.18,0 0.361,-0.018 0.545,-0.044 0.179,0.027 0.361,0.044 0.546,0.044 5.636,0 13.642,-13.354 19.646,-32.112 3.487,-0.346 6.854,-0.795 10.038,-1.335 6.506,9.326 10.337,17.325 9.559,20.801 -0.157,0.705 -0.508,1.162 -1.07,1.399 -0.229,0.097 -0.495,0.146 -0.792,0.146 -0.769,0 -1.469,-0.325 -1.474,-0.328 -0.298,-0.141 -0.652,-0.04 -0.831,0.235 -0.179,0.276 -0.123,0.641 0.128,0.853 0.891,0.752 1.844,1.134 2.832,1.134 1.312,0 2.199,-0.696 2.267,-0.75 3.639,-3.266 -0.346,-13.064 -7.695,-24.026 3.378,-0.658 6.517,-1.422 9.324,-2.285 C 87.326,55.17 94.404,52.098 94.197,47.883 93.911,42.061 79.74,38.988 64.678,38.272 Z M 61.245,11.304 c 0.002,0.006 0.009,0.019 0.017,0.033 1.828,5.09 1.585,15.071 -0.456,26.802 -1.033,-0.022 -2.064,-0.033 -3.092,-0.033 -0.95,0 -1.917,0.019 -2.88,0.036 -2.59,-2.692 -5.175,-5.202 -7.705,-7.489 4.111,-10.163 8.687,-17.727 12.419,-20.237 0.005,-0.003 0.268,-0.163 0.638,-0.268 0.434,0.16 0.785,0.541 1.059,1.156 z M 46.05,33.411 c 1.654,1.529 3.329,3.146 5.003,4.84 -0.559,0.022 -1.116,0.034 -1.675,0.062 -1.733,0.084 -3.471,0.201 -5.199,0.34 0.605,-1.801 1.23,-3.552 1.871,-5.242 z m 11.961,7.488 c 0.769,0 1.528,0.007 2.284,0.017 -0.165,0.854 -0.342,1.717 -0.524,2.585 -0.296,-0.334 -0.591,-0.671 -0.89,-1.003 -0.482,-0.537 -0.964,-1.067 -1.447,-1.592 0.191,0 0.386,-0.007 0.577,-0.007 z m 3.331,12.53 c 0.259,-0.962 0.504,-1.919 0.744,-2.875 1.867,2.291 3.622,4.564 5.241,6.783 -2.365,0.367 -4.832,0.685 -7.372,0.95 0.479,-1.588 0.941,-3.206 1.387,-4.858 z M 24.141,18.709 c 4.581,1.08 11.413,5.496 18.857,11.965 -1.072,2.731 -2.077,5.551 -2.992,8.37 -3.127,0.334 -6.192,0.755 -9.129,1.254 -5.584,-8.281 -8.971,-15.53 -9.036,-19.737 0.006,-0.318 0.117,-1.899 1.747,-1.899 0.161,0 0.335,0.015 0.518,0.044 0.005,0 0.02,0.002 0.035,0.003 z m 66.142,31.657 c -0.029,0.013 -0.056,0.029 -0.082,0.046 -3.923,2.594 -11.058,4.847 -19.86,6.423 -2.258,-3.206 -4.77,-6.474 -7.435,-9.678 0.477,-2.078 0.905,-4.129 1.285,-6.142 14.063,0.533 24.912,2.874 27.298,6.054 0.41,0.546 0.528,1.087 0.363,1.652 -0.296,1.022 -1.559,1.64 -1.569,1.645 z"
   id="path11">
                        </path>
                    </svg>
        </svg>
        <defs
           id="defs12" />
      </g>
    </g>
    <g
       transform="translate(-13.329987,61.24535)"
       fill="#000000"
       stroke="#000000"
       stroke-width="6"
       stroke-linejoin="round"
       id="g17">
      <g
         data-gra="path-name"
         fill-rule=""
         class="tp-name"
         id="g16">
        <g
           id="g15">
          <g
             id="g14">
            <path
               d="M 10.64,0 H 1.82 v -22.09 h 8.12 q 2.29,0 3.9,0.43 1.61,0.42 2.62,1.2 1.02,0.77 1.48,1.87 0.46,1.11 0.46,2.48 v 0 q 0,0.74 -0.21,1.43 -0.21,0.69 -0.67,1.29 -0.45,0.61 -1.16,1.1 -0.72,0.5 -1.72,0.86 v 0 q 2.19,0.53 3.23,1.72 1.05,1.19 1.05,3.06 v 0 q 0,1.4 -0.55,2.62 -0.54,1.21 -1.6,2.11 -1.05,0.9 -2.6,1.41 Q 12.63,0 10.64,0 Z M 10.52,-9.37 H 6.94 v 5.5 h 3.61 q 1.02,0 1.66,-0.25 0.64,-0.26 1.01,-0.67 0.36,-0.41 0.5,-0.93 0.14,-0.51 0.14,-1.04 v 0 q 0,-0.61 -0.16,-1.09 Q 13.54,-8.34 13.15,-8.67 12.76,-9 12.13,-9.19 11.49,-9.37 10.52,-9.37 Z m -3.58,-8.88 v 5.46 h 2.67 q 0.85,0 1.53,-0.13 0.68,-0.12 1.16,-0.42 0.48,-0.3 0.73,-0.83 0.25,-0.53 0.25,-1.34 v 0 q 0,-0.79 -0.2,-1.31 -0.19,-0.52 -0.6,-0.84 -0.41,-0.32 -1.04,-0.46 -0.63,-0.13 -1.5,-0.13 v 0 z M 34.71,0 h -2.15 q -0.67,0 -1.01,-0.18 -0.34,-0.18 -0.56,-0.76 v 0 L 30.65,-1.8 q -0.59,0.5 -1.14,0.88 -0.54,0.37 -1.12,0.64 -0.59,0.26 -1.25,0.39 -0.66,0.13 -1.46,0.13 v 0 q -1.08,0 -1.96,-0.28 -0.88,-0.28 -1.49,-0.82 -0.61,-0.55 -0.95,-1.36 -0.33,-0.81 -0.33,-1.87 v 0 q 0,-0.84 0.42,-1.72 0.43,-0.88 1.47,-1.6 1.05,-0.72 2.82,-1.2 1.78,-0.49 4.48,-0.55 v 0 -0.66 q 0,-1.38 -0.57,-2 -0.57,-0.61 -1.62,-0.61 v 0 q -0.83,0 -1.36,0.18 -0.53,0.18 -0.95,0.41 -0.42,0.23 -0.81,0.41 -0.39,0.18 -0.94,0.18 v 0 q -0.48,0 -0.83,-0.23 -0.34,-0.24 -0.53,-0.59 v 0 l -0.85,-1.47 q 1.42,-1.26 3.16,-1.87 1.73,-0.61 3.72,-0.61 v 0 q 1.42,0 2.57,0.46 1.14,0.46 1.94,1.29 0.8,0.82 1.22,1.96 0.42,1.14 0.42,2.49 v 0 z m -7.54,-2.87 v 0 q 0.9,0 1.59,-0.31 0.68,-0.32 1.38,-1.03 v 0 -2.19 q -1.41,0.06 -2.32,0.25 -0.91,0.18 -1.44,0.45 -0.53,0.27 -0.74,0.62 -0.2,0.35 -0.2,0.76 v 0 q 0,0.8 0.44,1.13 0.44,0.32 1.29,0.32 z M 38.2,-22.69 h 4.7 V 0 h -4.7 z m 15.49,6.73 v 0 q 1.79,0 3.26,0.56 1.47,0.56 2.53,1.61 1.05,1.04 1.63,2.53 0.59,1.5 0.59,3.36 v 0 q 0,1.88 -0.59,3.39 -0.58,1.51 -1.63,2.56 -1.06,1.06 -2.53,1.62 -1.47,0.57 -3.26,0.57 v 0 q -1.8,0 -3.28,-0.57 Q 48.93,-0.89 47.87,-1.95 46.8,-3 46.21,-4.51 45.63,-6.02 45.63,-7.9 v 0 q 0,-1.86 0.58,-3.36 0.59,-1.49 1.66,-2.53 1.06,-1.05 2.54,-1.61 1.48,-0.56 3.28,-0.56 z m 0,12.72 v 0 q 1.63,0 2.39,-1.15 0.77,-1.14 0.77,-3.48 v 0 q 0,-2.33 -0.77,-3.47 -0.76,-1.14 -2.39,-1.14 v 0 q -1.66,0 -2.44,1.14 -0.77,1.14 -0.77,3.47 v 0 q 0,2.34 0.77,3.48 0.78,1.15 2.44,1.15 z m 17.59,-12.72 v 0 q 1.79,0 3.26,0.56 1.47,0.56 2.52,1.61 1.06,1.04 1.64,2.53 0.58,1.5 0.58,3.36 v 0 q 0,1.88 -0.58,3.39 -0.58,1.51 -1.64,2.56 -1.05,1.06 -2.52,1.62 -1.47,0.57 -3.26,0.57 v 0 Q 69.47,0.24 68,-0.33 66.52,-0.89 65.45,-1.95 64.38,-3 63.8,-4.51 63.21,-6.02 63.21,-7.9 v 0 q 0,-1.86 0.59,-3.36 0.58,-1.49 1.65,-2.53 1.07,-1.05 2.55,-1.61 1.47,-0.56 3.28,-0.56 z m 0,12.72 v 0 q 1.62,0 2.39,-1.15 0.76,-1.14 0.76,-3.48 v 0 q 0,-2.33 -0.76,-3.47 -0.77,-1.14 -2.39,-1.14 v 0 q -1.67,0 -2.44,1.14 -0.78,1.14 -0.78,3.47 v 0 q 0,2.34 0.78,3.48 0.77,1.15 2.44,1.15 z m 30.01,-16.74 -1.27,2.38 q -0.23,0.36 -0.48,0.55 -0.25,0.18 -0.64,0.18 v 0 q -0.35,0 -0.75,-0.22 -0.4,-0.22 -0.91,-0.49 -0.51,-0.28 -1.16,-0.5 -0.65,-0.22 -1.49,-0.22 v 0 q -1.44,0 -2.14,0.62 -0.71,0.61 -0.71,1.66 v 0 q 0,0.66 0.43,1.1 0.42,0.44 1.11,0.76 0.69,0.32 1.58,0.58 0.89,0.27 1.81,0.6 0.92,0.32 1.81,0.76 0.89,0.44 1.58,1.12 0.69,0.69 1.11,1.66 0.43,0.98 0.43,2.36 v 0 q 0,1.53 -0.53,2.87 -0.53,1.33 -1.54,2.32 -1.01,1 -2.49,1.56 -1.48,0.57 -3.36,0.57 v 0 q -1.03,0 -2.1,-0.21 -1.06,-0.21 -2.07,-0.6 -1,-0.39 -1.87,-0.92 -0.88,-0.53 -1.54,-1.18 v 0 l 1.52,-2.39 q 0.17,-0.28 0.47,-0.44 0.3,-0.17 0.65,-0.17 v 0 q 0.46,0 0.92,0.29 0.46,0.29 1.04,0.64 0.59,0.34 1.35,0.63 0.75,0.29 1.79,0.29 v 0 q 1.39,0 2.16,-0.61 0.78,-0.62 0.78,-1.95 v 0 q 0,-0.78 -0.43,-1.26 -0.42,-0.49 -1.11,-0.8 -0.69,-0.32 -1.57,-0.56 -0.88,-0.25 -1.81,-0.54 -0.92,-0.3 -1.8,-0.73 -0.88,-0.43 -1.57,-1.14 -0.69,-0.7 -1.11,-1.76 -0.43,-1.05 -0.43,-2.6 v 0 q 0,-1.24 0.5,-2.42 0.5,-1.18 1.47,-2.11 0.97,-0.92 2.38,-1.48 1.41,-0.55 3.23,-0.55 v 0 q 1.02,0 1.98,0.16 0.96,0.16 1.83,0.47 0.86,0.31 1.61,0.74 0.75,0.43 1.34,0.98 z m 9.58,4.02 v 0 q 1.57,0 2.86,0.48 1.3,0.49 2.23,1.41 0.93,0.93 1.46,2.27 0.52,1.34 0.52,3.04 v 0 q 0,0.53 -0.05,0.86 -0.04,0.34 -0.16,0.53 -0.13,0.2 -0.33,0.28 -0.2,0.07 -0.52,0.07 v 0 h -9.07 q 0.23,1.97 1.2,2.86 0.97,0.89 2.5,0.89 v 0 q 0.82,0 1.41,-0.2 0.59,-0.2 1.05,-0.44 0.47,-0.24 0.85,-0.44 0.39,-0.2 0.81,-0.2 v 0 q 0.57,0 0.85,0.41 v 0 l 1.37,1.68 q -0.73,0.84 -1.57,1.36 -0.84,0.52 -1.73,0.82 -0.89,0.3 -1.77,0.41 -0.89,0.11 -1.69,0.11 v 0 q -1.66,0 -3.1,-0.54 -1.45,-0.53 -2.54,-1.59 -1.08,-1.07 -1.71,-2.64 -0.63,-1.58 -0.63,-3.67 v 0 q 0,-1.58 0.54,-2.99 0.54,-1.41 1.55,-2.47 1.01,-1.06 2.44,-1.68 1.43,-0.62 3.23,-0.62 z m 0.1,3.24 v 0 q -1.35,0 -2.11,0.77 -0.76,0.76 -1,2.2 v 0 h 5.86 q 0,-0.56 -0.14,-1.09 -0.14,-0.53 -0.47,-0.95 -0.33,-0.41 -0.86,-0.67 -0.53,-0.26 -1.28,-0.26 z M 133.64,0 h -2.15 q -0.67,0 -1.01,-0.18 -0.34,-0.18 -0.57,-0.76 v 0 l -0.33,-0.86 q -0.59,0.5 -1.14,0.88 -0.54,0.37 -1.13,0.64 -0.58,0.26 -1.24,0.39 -0.66,0.13 -1.46,0.13 v 0 q -1.08,0 -1.96,-0.28 -0.88,-0.28 -1.49,-0.82 -0.61,-0.55 -0.95,-1.36 -0.33,-0.81 -0.33,-1.87 v 0 q 0,-0.84 0.42,-1.72 0.43,-0.88 1.47,-1.6 1.05,-0.72 2.82,-1.2 1.78,-0.49 4.48,-0.55 v 0 -0.66 q 0,-1.38 -0.57,-2 -0.57,-0.61 -1.62,-0.61 v 0 q -0.83,0 -1.36,0.18 -0.53,0.18 -0.95,0.41 -0.42,0.23 -0.81,0.41 -0.39,0.18 -0.94,0.18 v 0 q -0.49,0 -0.83,-0.23 -0.34,-0.24 -0.53,-0.59 v 0 l -0.85,-1.47 q 1.42,-1.26 3.16,-1.87 1.73,-0.61 3.72,-0.61 v 0 q 1.42,0 2.57,0.46 1.14,0.46 1.94,1.29 0.79,0.82 1.22,1.96 0.42,1.14 0.42,2.49 v 0 z m -7.55,-2.87 v 0 q 0.91,0 1.6,-0.31 0.68,-0.32 1.38,-1.03 v 0 -2.19 q -1.41,0.06 -2.32,0.25 -0.91,0.18 -1.44,0.45 -0.53,0.27 -0.74,0.62 -0.2,0.35 -0.2,0.76 v 0 q 0,0.8 0.44,1.13 0.44,0.32 1.28,0.32 z M 141.68,0 h -4.7 v -15.72 h 2.79 q 0.35,0 0.58,0.06 0.24,0.06 0.4,0.19 0.15,0.13 0.24,0.34 0.08,0.21 0.14,0.52 v 0 l 0.26,1.47 q 0.86,-1.34 1.94,-2.11 1.08,-0.77 2.35,-0.77 v 0 q 1.08,0 1.73,0.51 v 0 l -0.61,3.46 q -0.06,0.32 -0.24,0.45 -0.18,0.12 -0.49,0.12 v 0 q -0.25,0 -0.6,-0.06 -0.35,-0.07 -0.88,-0.07 v 0 q -1.85,0 -2.91,1.97 v 0 z m 20.4,-13.64 -1.24,1.65 q -0.21,0.26 -0.41,0.41 -0.2,0.15 -0.56,0.15 v 0 q -0.35,0 -0.63,-0.17 -0.28,-0.16 -0.63,-0.37 -0.35,-0.2 -0.82,-0.37 -0.47,-0.17 -1.17,-0.17 v 0 q -0.86,0 -1.49,0.32 -0.63,0.32 -1.04,0.91 -0.41,0.59 -0.6,1.45 -0.2,0.86 -0.2,1.93 v 0 q 0,2.26 0.87,3.47 0.87,1.22 2.4,1.22 v 0 q 0.82,0 1.3,-0.21 0.48,-0.2 0.81,-0.45 0.33,-0.25 0.61,-0.47 0.29,-0.21 0.71,-0.21 v 0 q 0.56,0 0.85,0.41 v 0 l 1.36,1.68 q -0.72,0.84 -1.53,1.36 -0.8,0.52 -1.64,0.82 -0.84,0.3 -1.69,0.41 -0.85,0.11 -1.66,0.11 v 0 q -1.44,0 -2.75,-0.54 -1.31,-0.55 -2.3,-1.59 -0.99,-1.04 -1.58,-2.55 -0.58,-1.52 -0.58,-3.46 v 0 q 0,-1.7 0.51,-3.17 0.5,-1.48 1.5,-2.57 0.99,-1.08 2.45,-1.7 1.47,-0.62 3.39,-0.62 v 0 q 1.85,0 3.25,0.59 1.39,0.59 2.51,1.73 z M 168.93,0 h -4.7 v -22.69 h 4.7 v 8.35 q 0.85,-0.73 1.85,-1.18 0.99,-0.44 2.37,-0.44 v 0 q 1.29,0 2.28,0.44 0.99,0.45 1.67,1.25 0.69,0.79 1.04,1.89 0.34,1.1 0.34,2.39 v 0 V 0 h -4.7 v -9.99 q 0,-1.15 -0.53,-1.8 -0.53,-0.64 -1.56,-0.64 v 0 q -0.77,0 -1.45,0.33 -0.68,0.34 -1.31,0.9 v 0 z"
               transform="translate(-1.8200001,22.690001)"
               id="path13" />
          </g>
        </g>
      </g>
    </g>
  </mask>
</svg>
